<?xml version="1.0" encoding="utf-8"?>
<!-- Generator: Adobe Illustrator 24.0.0, SVG Export Plug-In . SVG Version: 6.00 Build 0)  -->
<svg version="1.1" id="Layer_1" xmlns="http://www.w3.org/2000/svg" xmlns:xlink="http://www.w3.org/1999/xlink" x="0px" y="0px"
	 viewBox="0 0 512 512" style="enable-background:new 0 0 512 512;" xml:space="preserve">
<style type="text/css">
	.st0{fill:#463C4B;}
	.st1{fill:#555A6E;}
	.st2{fill:#9B5FAA;}
	.st3{fill:#5AD7FF;}
	.st4{fill:#D7E6F0;}
	.st5{fill:#FAB991;}
	.st6{fill:#A5C3DC;}
	.st7{fill:#643773;}
	.st8{fill:#B97DC8;}
	.st9{fill:#2387C3;}
	.st10{fill:#41AFE1;}
	.st11{fill:#F0915A;}
	.st12{fill:#FFFFFF;}
	.st13{fill:#D7E6E6;}
	.st14{fill:#AAC3D7;}
	.st15{fill:#353744;}
	.st16{fill:#289BC3;}
	.st17{fill:#FF6E91;}
	.st18{fill:#F5FFFF;}
	.st19{fill:#C8733C;}
	.st20{fill:#78F5FF;}
</style>
<g>
	<g>
		<g>
			<path class="st0" d="M480,384H48V176c0-17.673,14.327-32,32-32h368c17.673,0,32,14.327,32,32V384z"/>
		</g>
		<g>
			<path class="st1" d="M448,384H48V176c0-17.673,14.327-32,32-32h336c17.673,0,32,14.327,32,32V384z"/>
		</g>
		<g>
			<path class="st6" d="M80,424h368c17.673,0,32-14.327,32-32v-8H48v8C48,409.673,62.327,424,80,424z"/>
		</g>
		<g>
			<path class="st4" d="M416,424H80c-17.673,0-32-14.327-32-32v-8h400v8C448,409.673,433.673,424,416,424z"/>
		</g>
		<g>
			<rect x="216" y="424" class="st6" width="72" height="32"/>
		</g>
		<g>
			<rect x="216" y="440" class="st4" width="48" height="16"/>
		</g>
		<g>
			<path class="st4" d="M328,480H168v-8c0-8.837,7.163-16,16-16h128c8.837,0,16,7.163,16,16V480z"/>
		</g>
		<g>
			<path class="st6" d="M328,480h-48v-8c0-8.837,7.163-16,16-16h16c8.837,0,16,7.163,16,16V480z"/>
		</g>
	</g>
	<polygon class="st3" points="413.919,266.619 248,84.107 82.081,266.619 93.919,277.381 240,116.693 240,344 256,344 256,116.693 
		402.081,277.381 	"/>
	<g>
		<g>
			<circle class="st9" cx="248" cy="96" r="80"/>
		</g>
		<path class="st3" d="M248,16c-44.183,0-80,35.817-80,80s35.817,80,80,80s80-35.817,80-80S292.183,16,248,16z M311.482,88H279.84
			c-0.831-20.91-4.886-39.435-10.9-52.463C291.547,43.389,308.42,63.571,311.482,88z M248,159.545
			c-1.893-1.625-5.717-6.478-9.295-17.062c-3.647-10.791-5.906-24.229-6.525-38.483h31.64c-0.619,14.254-2.878,27.693-6.525,38.483
			C253.717,153.067,249.893,157.92,248,159.545z M232.18,88c0.619-14.254,2.878-27.693,6.525-38.483
			c3.578-10.583,7.402-15.437,9.295-17.062c1.893,1.625,5.717,6.478,9.295,17.062c3.647,10.791,5.906,24.229,6.525,38.483H232.18z
			 M227.059,35.537C221.046,48.565,216.99,67.09,216.16,88h-31.642C187.58,63.571,204.453,43.389,227.059,35.537z M184.518,104
			h31.642c0.831,20.91,4.886,39.435,10.9,52.463C204.453,148.611,187.58,128.429,184.518,104z M268.941,156.463
			c6.014-13.029,10.069-31.554,10.9-52.463h31.642C308.42,128.429,291.547,148.611,268.941,156.463z"/>
	</g>
	<g>
		<g>
			<circle class="st2" cx="88" cy="272" r="72"/>
		</g>
		<g>
			<path class="st3" d="M141.333,312c0-13.255-10.745-24-24-24H58.667c-13.255,0-24,10.745-24,24v8.368
				C47.839,334.884,66.854,344,88,344s40.161-9.116,53.333-23.632V312z"/>
		</g>
		<g>
			<path class="st4" d="M88,320L88,320c-13.255,0-24-10.745-24-24v-8h48v8C112,309.255,101.255,320,88,320z"/>
		</g>
		<g>
			<circle class="st5" cx="88" cy="248" r="32"/>
		</g>
	</g>
	<g>
		<g>
			<circle class="st2" cx="408" cy="272" r="72"/>
		</g>
		<g>
			<path class="st3" d="M461.333,312c0-13.255-10.745-24-24-24h-58.667c-13.255,0-24,10.745-24,24v8.368
				C367.839,334.884,386.854,344,408,344s40.161-9.116,53.333-23.632V312z"/>
		</g>
		<g>
			<path class="st4" d="M408,320L408,320c-13.255,0-24-10.745-24-24v-8h48v8C432,309.255,421.255,320,408,320z"/>
		</g>
		<g>
			<circle class="st5" cx="408" cy="248" r="32"/>
		</g>
	</g>
	<g>
		<g>
			<circle class="st2" cx="248" cy="344" r="72"/>
		</g>
		<g>
			<path class="st3" d="M301.333,384c0-13.255-10.745-24-24-24h-58.667c-13.255,0-24,10.745-24,24v8.368
				C207.839,406.884,226.854,416,248,416s40.161-9.116,53.333-23.632V384z"/>
		</g>
		<g>
			<path class="st4" d="M248,392L248,392c-13.255,0-24-10.745-24-24v-8h48v8C272,381.255,261.255,392,248,392z"/>
		</g>
		<g>
			<circle class="st5" cx="248" cy="320" r="32"/>
		</g>
	</g>
</g>
</svg>
