<?xml version="1.0" encoding="utf-8"?>
<!-- Generator: Adobe Illustrator 24.0.0, SVG Export Plug-In . SVG Version: 6.00 Build 0)  -->
<svg version="1.1" id="Layer_1" xmlns="http://www.w3.org/2000/svg" xmlns:xlink="http://www.w3.org/1999/xlink" x="0px" y="0px"
	 viewBox="0 0 512 512" style="enable-background:new 0 0 512 512;" xml:space="preserve">
<style type="text/css">
	.st0{fill:#463C4B;}
	.st1{fill:#555A6E;}
	.st2{fill:#9B5FAA;}
	.st3{fill:#5AD7FF;}
	.st4{fill:#D7E6F0;}
	.st5{fill:#FAB991;}
	.st6{fill:#A5C3DC;}
	.st7{fill:#643773;}
	.st8{fill:#B97DC8;}
	.st9{fill:#2387C3;}
	.st10{fill:#41AFE1;}
	.st11{fill:#F0915A;}
	.st12{fill:#FFFFFF;}
	.st13{fill:#D7E6E6;}
	.st14{fill:#AAC3D7;}
	.st15{fill:#353744;}
	.st16{fill:#289BC3;}
	.st17{fill:#FF6E91;}
	.st18{fill:#F5FFFF;}
	.st19{fill:#C8733C;}
	.st20{fill:#78F5FF;}
</style>
<g>
	<g>
		<g>
			<path class="st5" d="M264,384h-68.118c-12.73,0-24.939,5.057-33.941,14.059L144,416l40,40l19.314-19.314
				c3.001-3.001,7.07-4.686,11.314-4.686H264c13.255,0,24-10.745,24-24v0C288,394.745,277.255,384,264,384z"/>
		</g>
		<g>
			<path class="st11" d="M379.313,372.686c-6.248-6.249-16.379-6.249-22.627,0L297.373,432h-82.745
				c-4.243,0-8.313,1.686-11.314,4.686L184,456l24,24l16-16h76.687c6.411,0,12.438-2.497,16.97-7.03l61.657-61.657
				C385.562,389.065,385.562,378.935,379.313,372.686z"/>
		</g>
		<g>
			<path class="st11" d="M264,421.333h-5.333c-4.418,0-8-3.582-8-8v-10.667c0-4.418,3.582-8,8-8H264
				c7.364,0,13.333,5.97,13.333,13.333l0,0C277.333,415.364,271.364,421.333,264,421.333z"/>
		</g>
		<g>
			<path class="st1" d="M141.657,413.657L184,456l-40,40H48l82.343-82.343C133.467,410.533,138.533,410.533,141.657,413.657z"/>
		</g>
		<g>
			<path class="st0" d="M184,456l26.343,26.343c3.124,3.124,3.124,8.19,0,11.314L208,496h-64L184,456z"/>
		</g>
	</g>
	<g>
		<path class="st9" d="M392,128H120c-8.837,0-16,7.163-16,16v192c0,8.837,7.163,16,16,16h272c8.837,0,16-7.163,16-16V144
			C408,135.163,400.837,128,392,128z"/>
	</g>
	<g>
		<path class="st3" d="M296,128H120c-8.837,0-16,7.163-16,16v192c0,8.837,7.163,16,16,16h176c8.837,0,16-7.163,16-16V144
			C312,135.163,304.837,128,296,128z"/>
	</g>
	<g>
		<path class="st4" d="M224,160h-32c-4.418,0-8-3.582-8-8v-24h48v24C232,156.418,228.418,160,224,160z"/>
	</g>
	<g>
		<path class="st9" d="M280,296h-32c-4.418,0-8,3.582-8,8v16c0,4.418,3.582,8,8,8h32c4.418,0,8-3.582,8-8v-16
			C288,299.582,284.418,296,280,296z"/>
	</g>
	<g>
		<path class="st2" d="M368,272L368,272c-61.856,0-112-50.144-112-112v-32c0-61.856,50.144-112,112-112h0
			c61.856,0,112,50.144,112,112v32C480,221.856,429.856,272,368,272z"/>
	</g>
	<g>
		<g>
			<path class="st4" d="M389.333,67.644c-0.885,0-1.784-0.147-2.667-0.459c-3.018-1.067-6.155-1.878-9.323-2.41
				c-4.357-0.731-7.297-4.856-6.565-9.214s4.862-7.294,9.214-6.565c4.079,0.685,8.119,1.729,12.009,3.104
				c4.165,1.474,6.349,6.044,4.876,10.21C395.715,65.592,392.628,67.644,389.333,67.644z"/>
		</g>
		<g>
			<path class="st4" d="M312.57,208.001c-2.763,0-5.449-1.432-6.933-3.994C299.333,193.108,296,180.658,296,168v-48
				c0-33.813,23.976-63.435,57.009-70.436c4.322-0.915,8.568,1.846,9.484,6.168s-1.846,8.568-6.168,9.484
				C330.642,70.66,312,93.699,312,120v48c0,9.848,2.589,19.528,7.487,27.993c2.212,3.825,0.906,8.719-2.918,10.932
				C315.308,207.654,313.93,208.001,312.57,208.001z"/>
		</g>
		<g>
			<path class="st4" d="M368,240c-4.418,0-8-3.582-8-8s3.582-8,8-8c24.576,0,46.645-16.428,53.667-39.949
				c1.264-4.232,5.718-6.638,9.955-5.377c4.233,1.265,6.641,5.721,5.377,9.955c-4.343,14.545-13.434,27.623-25.599,36.824
				C398.82,234.97,383.813,240,368,240z"/>
		</g>
		<g>
			<path class="st4" d="M432,168c-4.418,0-8-3.582-8-8v-40c0-13.658-4.972-26.813-13.998-37.039
				c-2.924-3.313-2.608-8.368,0.704-11.292c3.313-2.926,8.368-2.608,11.292,0.704C433.606,85.525,440,102.439,440,120v40
				C440,164.418,436.418,168,432,168z"/>
		</g>
		<g>
			<path class="st4" d="M400,194.667c-4.418,0-8-3.582-8-8V120c0-13.233-10.767-24-24-24c-2.038,0-4.059,0.254-6.006,0.755
				c-4.273,1.108-8.641-1.474-9.741-5.753c-1.102-4.278,1.474-8.64,5.753-9.741C361.254,80.424,364.617,80,368,80
				c22.056,0,40,17.944,40,40v66.667C408,191.085,404.418,194.667,400,194.667z"/>
		</g>
		<g>
			<path class="st4" d="M336,192c-4.418,0-8-3.582-8-8v-64c0-5.563,1.122-10.951,3.336-16.014c1.771-4.048,6.484-5.894,10.535-4.125
				c4.048,1.771,5.895,6.487,4.125,10.535c-1.324,3.029-1.996,6.26-1.996,9.604v64C344,188.418,340.418,192,336,192z"/>
		</g>
		<g>
			<path class="st4" d="M338.667,229.333c-2.048,0-4.095-0.781-5.657-2.343c-3.124-3.125-3.124-8.189,0-11.314l13.702-13.702
				c8.569-8.568,13.288-19.961,13.288-32.079V128c0-4.418,3.582-8,8-8s8,3.582,8,8v41.895c0,16.392-6.383,31.803-17.974,43.394
				l-13.702,13.702C342.762,228.552,340.715,229.333,338.667,229.333z"/>
		</g>
	</g>
</g>
</svg>
