<?xml version="1.0" encoding="utf-8"?>
<!-- Generator: Adobe Illustrator 24.0.0, SVG Export Plug-In . SVG Version: 6.00 Build 0)  -->
<svg version="1.1" id="Layer_1" xmlns="http://www.w3.org/2000/svg" xmlns:xlink="http://www.w3.org/1999/xlink" x="0px" y="0px"
	 viewBox="0 0 512 512" style="enable-background:new 0 0 512 512;" xml:space="preserve">
<style type="text/css">
	.st0{fill:#463C4B;}
	.st1{fill:#555A6E;}
	.st2{fill:#9B5FAA;}
	.st3{fill:#5AD7FF;}
	.st4{fill:#D7E6F0;}
	.st5{fill:#FAB991;}
	.st6{fill:#A5C3DC;}
	.st7{fill:#643773;}
	.st8{fill:#B97DC8;}
	.st9{fill:#2387C3;}
	.st10{fill:#41AFE1;}
	.st11{fill:#F0915A;}
	.st12{fill:#FFFFFF;}
	.st13{fill:#D7E6E6;}
	.st14{fill:#AAC3D7;}
	.st15{fill:#353744;}
	.st16{fill:#289BC3;}
	.st17{fill:#FF6E91;}
	.st18{fill:#F5FFFF;}
	.st19{fill:#C8733C;}
	.st20{fill:#78F5FF;}
</style>
<g>
	<g>
		<g>
			<path class="st5" d="M264,384h-68.118c-12.73,0-24.939,5.057-33.941,14.059L144,416l40,40l19.314-19.314
				c3.001-3.001,7.07-4.686,11.314-4.686H264c13.255,0,24-10.745,24-24v0C288,394.745,277.255,384,264,384z"/>
		</g>
		<g>
			<path class="st11" d="M379.313,372.686c-6.248-6.249-16.379-6.249-22.627,0L297.373,432h-82.745
				c-4.243,0-8.313,1.686-11.314,4.686L184,456l24,24l16-16h76.687c6.411,0,12.438-2.497,16.97-7.03l61.657-61.657
				C385.562,389.065,385.562,378.935,379.313,372.686z"/>
		</g>
		<g>
			<path class="st11" d="M264,421.333h-5.333c-4.418,0-8-3.582-8-8v-10.667c0-4.418,3.582-8,8-8H264
				c7.364,0,13.333,5.97,13.333,13.333l0,0C277.333,415.364,271.364,421.333,264,421.333z"/>
		</g>
		<g>
			<path class="st1" d="M141.657,413.657L184,456l-40,40H48l82.343-82.343C133.467,410.533,138.533,410.533,141.657,413.657z"/>
		</g>
		<g>
			<path class="st0" d="M184,456l26.343,26.343c3.124,3.124,3.124,8.19,0,11.314L208,496h-64L184,456z"/>
		</g>
	</g>
	<g>
		<path class="st9" d="M392,128H120c-8.837,0-16,7.163-16,16v192c0,8.837,7.163,16,16,16h272c8.837,0,16-7.163,16-16V144
			C408,135.163,400.837,128,392,128z"/>
	</g>
	<g>
		<path class="st3" d="M296,128H120c-8.837,0-16,7.163-16,16v192c0,8.837,7.163,16,16,16h176c8.837,0,16-7.163,16-16V144
			C312,135.163,304.837,128,296,128z"/>
	</g>
	<g>
		<path class="st4" d="M224,160h-32c-4.418,0-8-3.582-8-8v-24h48v24C232,156.418,228.418,160,224,160z"/>
	</g>
	<g>
		<path class="st9" d="M280,296h-32c-4.418,0-8,3.582-8,8v16c0,4.418,3.582,8,8,8h32c4.418,0,8-3.582,8-8v-16
			C288,299.582,284.418,296,280,296z"/>
	</g>
	<g>
		<g>
			<circle class="st7" cx="360" cy="119.804" r="88"/>
		</g>
		<g>
			<path class="st2" d="M414.621,119.804c0-1.833-0.095-3.644-0.275-5.43c-0.287-2.842,1.139-5.58,3.613-7.008l0.006-0.004
				c3.494-2.017,4.691-6.484,2.674-9.978L409.736,78.5c-2.017-3.494-6.484-4.691-9.978-2.674l-0.011,0.007
				c-2.473,1.428-5.557,1.294-7.874-0.374c-2.936-2.115-6.09-3.945-9.423-5.451c-2.595-1.172-4.242-3.776-4.242-6.624v0
				c0-4.034-3.27-7.305-7.305-7.305h-21.805c-4.034,0-7.305,3.27-7.305,7.305v0c0,2.847-1.647,5.452-4.242,6.624
				c-3.333,1.505-6.487,3.336-9.423,5.451c-2.317,1.669-5.402,1.802-7.874,0.374l-0.011-0.007c-3.494-2.017-7.961-0.82-9.978,2.674
				l-10.902,18.883c-2.017,3.494-0.82,7.961,2.674,9.978l0.006,0.004c2.474,1.428,3.9,4.167,3.613,7.008
				c-0.181,1.786-0.275,3.597-0.275,5.43s0.095,3.644,0.275,5.43c0.287,2.842-1.139,5.58-3.613,7.008l-0.006,0.004
				c-3.494,2.017-4.691,6.484-2.674,9.978l10.902,18.883c2.017,3.494,6.484,4.691,9.978,2.674l0.011-0.007
				c2.473-1.427,5.557-1.294,7.874,0.374c2.936,2.115,6.09,3.945,9.423,5.451c2.595,1.172,4.242,3.776,4.242,6.623v0
				c0,4.034,3.27,7.305,7.305,7.305h21.805c4.034,0,7.305-3.27,7.305-7.305v0c0-2.847,1.647-5.452,4.242-6.623
				c3.333-1.505,6.487-3.336,9.423-5.451c2.317-1.669,5.401-1.802,7.874-0.374l0.011,0.007c3.494,2.017,7.961,0.82,9.978-2.674
				l10.902-18.883c2.017-3.494,0.82-7.961-2.674-9.978l-0.006-0.004c-2.474-1.428-3.9-4.167-3.613-7.008
				C414.526,123.448,414.621,121.638,414.621,119.804z"/>
		</g>
		<g>
			<circle class="st7" cx="360" cy="119.804" r="18.207"/>
		</g>
	</g>
</g>
</svg>
