<?xml version="1.0" encoding="utf-8"?>
<!-- Generator: Adobe Illustrator 24.0.0, SVG Export Plug-In . SVG Version: 6.00 Build 0)  -->
<svg version="1.1" id="Layer_1" xmlns="http://www.w3.org/2000/svg" xmlns:xlink="http://www.w3.org/1999/xlink" x="0px" y="0px"
	 viewBox="0 0 512 512" style="enable-background:new 0 0 512 512;" xml:space="preserve">
<style type="text/css">
	.st0{fill:#463C4B;}
	.st1{fill:#555A6E;}
	.st2{fill:#9B5FAA;}
	.st3{fill:#5AD7FF;}
	.st4{fill:#D7E6F0;}
	.st5{fill:#FAB991;}
	.st6{fill:#A5C3DC;}
	.st7{fill:#643773;}
	.st8{fill:#B97DC8;}
	.st9{fill:#2387C3;}
	.st10{fill:#41AFE1;}
	.st11{fill:#F0915A;}
	.st12{fill:#FFFFFF;}
	.st13{fill:#D7E6E6;}
	.st14{fill:#AAC3D7;}
	.st15{fill:#353744;}
	.st16{fill:#289BC3;}
	.st17{fill:#FF6E91;}
	.st18{fill:#F5FFFF;}
	.st19{fill:#C8733C;}
	.st20{fill:#78F5FF;}
</style>
<g>
	<g>
		<path class="st1" d="M112,216.176c-4.418,0-8-3.582-8-8v-32c0-4.418,3.582-8,8-8s8,3.582,8,8v32
			C120,212.594,116.418,216.176,112,216.176z"/>
	</g>
	<g>
		<g>
			<path class="st5" d="M416,208.176H112v288h160v-48h96c35.346,0,64-28.654,64-64v-160C432,215.339,424.836,208.176,416,208.176z"
				/>
		</g>
		<g>
			<path class="st0" d="M80,224.176v160c0,17.673,14.327,32,32,32h80c17.673,0,32-14.327,32-32v-176H96
				C87.163,208.176,80,215.339,80,224.176z"/>
		</g>
		<g>
			<path class="st0" d="M224,208.176v96l0,0c26.51,0,48-21.49,48-48v-48H224z"/>
		</g>
		<g>
			<path class="st11" d="M224,256.176c-26.51,0-48,21.49-48,48s21.49,48,48,48V256.176z"/>
		</g>
		<g>
			<path class="st11" d="M272,496.176H112v0c0-26.51,21.49-48,48-48h112V496.176z"/>
		</g>
		<g>
			<path class="st11" d="M384,352.176L384,352.176c-13.255,0-24-10.745-24-24v-56h0c26.51,0,48,21.49,48,48v8
				C408,341.431,397.255,352.176,384,352.176z"/>
		</g>
		<g>
			<circle class="st0" cx="400" cy="256.176" r="16"/>
		</g>
		<g>
			<circle class="st0" cx="320" cy="256.176" r="16"/>
		</g>
	</g>
	<g>
		<path class="st0" d="M360,400.176h16c13.255,0,24-10.745,24-24v0h-64v0C336,389.431,346.745,400.176,360,400.176z"/>
	</g>
	<g>
		<g>
			<path class="st9" d="M230.224,224.176H448c8.837,0,16-7.163,16-16v-160c0-8.837-7.163-16-16-16H230.224
				c-4.003,0-7.861,1.501-10.812,4.206l-85.515,78.389c-3.758,3.445-5.897,8.308-5.897,13.406v0c0,5.098,2.139,9.961,5.897,13.406
				l85.515,78.389C222.363,222.675,226.221,224.176,230.224,224.176z"/>
		</g>
		<g>
			<path class="st3" d="M230.224,224.176H416c8.837,0,16-7.163,16-16v-160c0-8.837-7.163-16-16-16H230.224
				c-4.003,0-7.861,1.501-10.812,4.206l-85.515,78.389c-3.758,3.445-5.897,8.308-5.897,13.406v0c0,5.098,2.139,9.961,5.897,13.406
				l85.515,78.389C222.363,222.675,226.221,224.176,230.224,224.176z"/>
		</g>
		<g>
			<circle class="st9" cx="176" cy="128.176" r="21.333"/>
		</g>
	</g>
	<g>
		<path class="st1" d="M112,184.176c-4.418,0-8-3.582-8-8v-18c0-20.953,17.047-38,38-38h34c4.418,0,8,3.582,8,8s-3.582,8-8,8h-34
			c-12.131,0-22,9.869-22,22v18C120,180.594,116.418,184.176,112,184.176z"/>
	</g>
	<g>
		<path class="st2" d="M348.444,72.176c-9.819,0-18.708,3.979-25.141,10.415l-3.301,3.304H320l-3.304-3.304
			c-6.433-6.435-15.321-10.415-25.141-10.415c-19.636,0-35.556,15.92-35.556,35.556c0,9.819,3.979,18.708,10.415,25.141
			c0,0,2.478,2.478,3.304,3.304C282.289,148.747,320,185.954,320,185.954s37.711-37.207,50.281-49.778
			c0.826-0.826,3.304-3.304,3.304-3.304C380.021,126.44,384,117.551,384,107.732C384,88.096,368.08,72.176,348.444,72.176z"/>
	</g>
</g>
</svg>
